<?xml version="1.0" encoding="UTF-8"?>
<svg version="1.1" xmlns="http://www.w3.org/2000/svg" width="512" height="512">
<path d="M0 0 C1.2869323 -0.00668677 1.2869323 -0.00668677 2.59986323 -0.01350862 C4.01432993 -0.01323207 4.01432993 -0.01323207 5.45737171 -0.01294994 C6.95958065 -0.01846498 6.95958065 -0.01846498 8.49213725 -0.02409142 C11.86375801 -0.03514598 15.23534796 -0.03897511 18.60698414 -0.04278088 C21.018062 -0.04904418 23.4291389 -0.05569086 25.84021473 -0.0626936 C33.08711608 -0.08193346 40.33401489 -0.09252373 47.58093402 -0.10142139 C50.99436596 -0.10580533 54.40779635 -0.11117188 57.82122707 -0.11641026 C69.16964076 -0.13342233 80.51805349 -0.14791611 91.86647797 -0.155159 C94.81123004 -0.15706887 97.7559821 -0.1589892 100.70073414 -0.16094494 C101.79857851 -0.16167055 101.79857851 -0.16167055 102.91860155 -0.16241082 C114.77266417 -0.17070966 126.62662583 -0.19604418 138.48064437 -0.22852562 C150.65327358 -0.2616079 162.82585151 -0.27960883 174.99852592 -0.28280324 C181.83207701 -0.2849673 188.6654809 -0.29370063 195.49898815 -0.31926441 C201.92824143 -0.34326044 208.35730175 -0.34678971 214.78659344 -0.33650303 C217.14564106 -0.33600687 219.5047016 -0.3423509 221.86370945 -0.35605907 C225.08624773 -0.37373656 228.30783095 -0.36669142 231.53036976 -0.35352612 C232.92810604 -0.36997998 232.92810604 -0.36997998 234.35407943 -0.38676625 C241.26709511 -0.31866031 246.35606838 1.40531124 251.79961109 5.70453358 C258.9552654 14.10556725 259.23974263 23.63434928 258.99882984 34.25922108 C258.98529469 35.4064867 258.97175953 36.55375233 258.95781422 37.73578358 C258.92281438 40.53577066 258.87371843 43.33473325 258.81132984 46.13422108 C260.43777251 46.13007301 260.43777251 46.13007301 262.0970726 46.12584114 C288.48773762 46.05922454 314.87839172 46.00993525 341.26912308 45.97878456 C354.03151342 45.96331969 366.79384821 45.94223734 379.55620289 45.90790272 C390.68065127 45.87798884 401.80505941 45.85864331 412.92954689 45.85195559 C418.81915651 45.84804674 424.70865099 45.83886807 430.59822369 45.81703091 C436.14427681 45.79663448 441.69016762 45.79039372 447.23625469 45.79489803 C449.26914318 45.79407425 451.30203723 45.78812752 453.33489323 45.77660465 C456.11702613 45.76161119 458.89855148 45.76529244 461.68069935 45.77345753 C462.47936481 45.764719 463.27803028 45.75598048 464.10089773 45.74697715 C472.79870337 45.81566211 479.84308702 48.21401582 486.14726734 54.26703358 C491.06221728 59.78193046 491.4489946 65.36229396 491.19536304 72.54193592 C489.97953631 83.91490135 483.07126274 95.39599745 478.34395313 105.7186327 C476.21919784 110.3605595 474.10851788 115.00886844 471.99882984 119.65765858 C471.5657703 120.61177631 471.13271076 121.56589405 470.68652821 122.54892445 C465.49317826 134.01264519 460.44362083 145.5389595 455.41484547 157.07562733 C451.70084514 165.58964239 447.94395416 174.07978165 444.09257984 182.53265858 C442.9647125 185.0205541 441.83761319 187.50879648 440.71059132 189.99707508 C439.9928461 191.57365159 439.27029602 193.14805052 438.5426836 194.72009754 C437.54353574 196.87898881 436.56071563 199.04464597 435.58086109 201.21234608 C435.28292652 201.84369465 434.98499195 202.47504322 434.67802906 203.12552357 C432.97612974 206.94091862 432.44662375 209.17363937 433.81132984 213.13422108 C434.89865981 215.84958692 436.02442206 218.51517248 437.21367359 221.18500233 C437.56257145 221.97859653 437.91146931 222.77219074 438.27093983 223.58983326 C439.42517231 226.21106279 440.5868575 228.82891441 441.74882984 231.44672108 C442.56486601 233.29490434 443.38061671 235.14321367 444.19609547 236.99164295 C450.03912792 250.21683351 455.96490153 263.40452641 461.91655445 276.58112049 C467.94024906 289.91835306 473.87246947 303.29392888 479.74882984 316.69672108 C480.13627369 317.58029285 480.52371754 318.46386463 480.92290211 319.37421131 C482.02055445 321.87853181 483.1174212 324.38319372 484.21367359 326.88812733 C484.53472569 327.62172977 484.85577778 328.35533222 485.18655872 329.11116505 C485.78261656 330.47510249 486.37709803 331.8397303 486.96973133 333.20515919 C487.53443703 334.49954389 488.10647723 335.79075156 488.68552113 337.0787859 C491.73721717 343.94972423 492.09558249 351.29534057 490.15507984 358.60687733 C487.66021735 364.18805678 483.39644876 368.49961618 477.82626909 371.03929287 C472.00911509 373.06584038 466.81805629 373.56282066 460.68500233 373.52190113 C459.7043156 373.52728667 458.72362886 373.53267221 457.71322435 373.53822094 C454.44770049 373.55245669 451.18258449 373.54540753 447.91704273 373.53827381 C445.56743514 373.54397964 443.21783033 373.55094472 440.86822987 373.55907154 C434.50048579 373.57699394 428.13287959 373.57583629 421.76511788 373.57012916 C415.77073499 373.56664447 409.77636904 373.57460407 403.78199141 373.58148981 C391.18497562 373.59519934 378.58802203 373.58978795 365.99100768 373.5783046 C354.48139003 373.56837267 342.97193316 373.58131487 331.4623403 373.60523879 C319.62624049 373.62965487 307.79021549 373.63923158 295.95409101 373.63258606 C289.31620756 373.62909955 282.67843189 373.63162538 276.04056454 373.64883709 C269.79830764 373.66431708 263.55635749 373.66033853 257.31411266 373.64153194 C255.0268621 373.63784912 252.73958875 373.64094552 250.4523592 373.65141773 C247.3227681 373.66464981 244.19418921 373.65305973 241.064641 373.63542652 C240.1660809 373.64503153 239.2675208 373.65463653 238.34173161 373.6645326 C231.02434377 373.58008167 224.30592991 371.78784422 218.40898609 367.31000233 C217.64908375 366.38767811 217.64908375 366.38767811 216.87382984 365.44672108 C216.3491814 364.84472889 215.82453297 364.2427367 215.28398609 363.62250233 C208.02762312 351.3617511 210.81132984 341.07647568 210.81132984 326.13422108 C149.76132984 326.13422108 88.71132984 326.13422108 25.81132984 326.13422108 C26.009199 380.9729671 26.009199 380.9729671 26.26176929 435.81146717 C26.2843523 446.43036366 26.2843523 446.43036366 26.28854847 451.40536976 C26.293197 454.87176055 26.31189459 458.33776645 26.33920765 461.8040514 C26.37364243 466.23319408 26.38376036 470.66178149 26.37669122 475.09104562 C26.3781682 476.71176016 26.3880015 478.33249519 26.4074055 479.95309424 C26.52035428 489.8506469 26.10656083 498.50822656 18.99714088 506.06173229 C12.99642612 511.65907175 7.24166301 512.66574935 -0.82929516 512.50140858 C-7.08888823 511.8172205 -11.96410611 509.72651919 -16.10273266 504.90375233 C-20.17540462 498.98776201 -21.33700097 494.47179062 -21.32568455 487.32790756 C-21.32833637 486.52039937 -21.3309882 485.71289118 -21.33372039 484.88091305 C-21.34143188 482.15193723 -21.34197327 479.42300627 -21.3425703 476.69402027 C-21.34658371 474.72690257 -21.35102173 472.7597857 -21.35584986 470.79266983 C-21.36783485 465.36880234 -21.37346827 459.94494374 -21.37803102 454.52106559 C-21.38397984 448.67833074 -21.3955915 442.83560657 -21.40632153 436.99287891 C-21.4297021 423.54065057 -21.44425536 410.08841976 -21.45655094 396.63617723 C-21.4608054 391.98189217 -21.4653844 387.32760751 -21.47013426 382.67332292 C-21.49536997 357.92740743 -21.51744379 333.18149147 -21.5298624 308.43556595 C-21.53278375 302.70157271 -21.53575126 296.9675795 -21.53876781 291.23358631 C-21.53913872 290.52120775 -21.53950963 289.8088292 -21.53989178 289.07486341 C-21.5520457 265.9809081 -21.58298677 242.88702902 -21.62468934 219.79310952 C-21.66748212 196.05215245 -21.6941041 172.31123564 -21.69933712 148.57023896 C-21.70242419 134.5879412 -21.71331375 120.60573909 -21.7478857 106.62347698 C-21.77586341 95.28945866 -21.7868955 83.95558523 -21.77569024 72.62153506 C-21.7704978 66.83802354 -21.77342888 61.05481558 -21.79815578 55.271348 C-21.82060909 49.97547973 -21.8199385 44.68013379 -21.80095191 39.38425661 C-21.79814644 37.46963821 -21.80378075 35.55498469 -21.81876485 33.64042287 C-21.95725723 14.79041954 -21.95725723 14.79041954 -16.18867016 7.13422108 C-13.83710766 4.88031483 -13.83710766 4.88031483 -11.56367016 3.57172108 C-10.43058422 2.88916248 -10.43058422 2.88916248 -9.27460766 2.19281483 C-6.08182224 0.57250612 -3.52976404 0.00851053 0 0 Z " fill="#fff" transform="translate(21.18867015838623,-0.13422107696533203)"/>
</svg>
