<?xml version="1.0" encoding="UTF-8"?>
<svg version="1.1" xmlns="http://www.w3.org/2000/svg" width="512" height="512">
<path d="M0 0 C0 9.57 0 19.14 0 29 C2.88105469 28.94199219 5.76210937 28.88398438 8.73046875 28.82421875 C11.56369279 28.78507129 14.39688513 28.75479929 17.23022461 28.7253418 C19.17860709 28.70040996 21.12689813 28.66645151 23.07495117 28.62280273 C42.66884323 28.19520817 56.80115121 32.26126132 71.625 45.875 C77.55259496 51.73174721 81.97862905 58.64563028 86.5625 65.5625 C98.90362021 84.15887064 111.65559138 93.69900879 132.09155273 102.07324219 C147.35584092 108.38225473 161.18832105 117.1619825 168.21484375 132.68359375 C173.20521796 144.91977821 174.32674667 158.83260763 169.31640625 171.3671875 C163.56465617 182.87068766 154.80852185 192.15028766 142.796875 197.0703125 C129.0917669 201.62592106 115.31416087 200.93833044 102.3125 194.4375 C94.80756186 190.04222144 88.07393589 183.74308968 84 176 C84 175.34 84 174.68 84 174 C62.55 174.33 41.1 174.66 19 175 C23.62 178.3 28.24 181.6 33 185 C53.11082024 199.93946647 73.07351697 217.81344639 88 238 C88.46889648 238.61955566 88.93779297 239.23911133 89.42089844 239.87744141 C129 292.26009944 129 292.26009944 129 317 C115.47 317 101.94 317 88 317 C88 324.59 88 332.18 88 340 C93.36997869 339.88192224 93.36997869 339.88192224 98.73901367 339.72973633 C103.33678085 339.67891114 106.2540351 340.0430334 110 343 C113.10873579 346.88591974 114.14957579 351.07279738 114 356 C112.93659156 361.34340772 111.37917911 365.52685794 107 369 C107.26554688 369.64066406 107.53109375 370.28132813 107.8046875 370.94140625 C108.15789062 371.80636719 108.51109375 372.67132813 108.875 373.5625 C109.39707031 374.83287109 109.39707031 374.83287109 109.9296875 376.12890625 C112.40189877 382.76056788 113.38779895 388.53924551 113.375 395.5625 C113.37367065 396.87661865 113.37367065 396.87661865 113.37231445 398.21728516 C113.19005672 408.33305217 110.68591135 417.00412434 106 426 C106.72445312 425.95359375 107.44890625 425.9071875 108.1953125 425.859375 C112.77720543 425.68831766 116.2169817 425.6784032 120.5 427.4375 C127.15805807 434.26200952 126.47138589 443.87826256 126.39111328 452.85644531 C126.37502938 454.99609117 126.3910265 457.13384889 126.41015625 459.2734375 C126.43307211 473.61376789 126.43307211 473.61376789 123 480 C120.31710514 482.68289486 118.58243222 483.80585593 115 485 C114.67 493.91 114.34 502.82 114 512 C38.76 512 -36.48 512 -114 512 C-114 503.09 -114 494.18 -114 485 C-115.98 484.67 -117.96 484.34 -120 484 C-124.22503964 481.07497255 -126.5443553 478.91144065 -128 474 C-128.21243822 471.10387788 -128.32774307 468.30618362 -128.3359375 465.41015625 C-128.3425943 464.58801132 -128.3492511 463.76586639 -128.35610962 462.91880798 C-128.36620675 461.18490833 -128.37092755 459.45097004 -128.37060547 457.71704102 C-128.37498034 455.07437784 -128.41133357 452.43338387 -128.44921875 449.79101562 C-128.45508736 448.10156818 -128.45905646 446.41211284 -128.4609375 444.72265625 C-128.47530853 443.93810562 -128.48967957 443.15355499 -128.50448608 442.3452301 C-128.46109311 437.09713053 -127.41888806 434.19126275 -124 430 C-119.90095486 426.00605858 -116.63927751 425.76197454 -111.125 425.75 C-109.08263483 425.81396669 -107.04045811 425.89101411 -105 426 C-105.40992188 425.11441406 -105.81984375 424.22882813 -106.2421875 423.31640625 C-112.83752859 408.43007002 -115.36421907 392.77856568 -109.96875 376.98046875 C-109.28321079 375.26906907 -108.56631692 373.56954534 -107.8046875 371.890625 C-106.86945878 370.03574932 -106.86945878 370.03574932 -107 368 C-107.78375 367.38125 -108.5675 366.7625 -109.375 366.125 C-112.57476379 363.53471503 -113.78831609 361.69072216 -114.30078125 357.59765625 C-114.34090789 348.91692649 -114.34090789 348.91692649 -111 345 C-105.78245493 340.41874091 -102.66043847 339.86189809 -95.875 339.9375 C-91.976875 339.9684375 -91.976875 339.9684375 -88 340 C-88 332.41 -88 324.82 -88 317 C-100.21 317 -112.42 317 -125 317 C-127.10043199 308.59827203 -128.83042569 300.73762304 -130.0625 292.25 C-130.30323242 290.70119141 -130.30323242 290.70119141 -130.54882812 289.12109375 C-133.50242784 269.12202101 -134.38378606 249.06915943 -134.3125 228.875 C-134.31034485 227.76547974 -134.3081897 226.65595947 -134.30596924 225.51281738 C-134.19823141 190.79632618 -130.90342801 155.85516585 -119 123 C-118.71962891 122.19014648 -118.43925781 121.38029297 -118.15039062 120.54589844 C-109.37877833 95.22827576 -96.53990858 72.26973335 -79 52 C-78.24847656 51.12601563 -77.49695313 50.25203125 -76.72265625 49.3515625 C-72.12612791 44.11859178 -67.38073555 39.41360988 -62 35 C-61.49791016 34.57493164 -60.99582031 34.14986328 -60.47851562 33.71191406 C-45.95340682 21.42208623 -19.79462018 0 0 0 Z " fill="#fff" transform="translate(237,0)"/>
</svg>
